# xmcd
#
# Track frame offsets:
#	151
#	18926
#	31740
#	49727
#	65742
#	81728
#	100981
#	117016
#	131760
#	146164
#	166678
#	182454
#	199034
#	215670
#	230672
#	245151
#	257764
#	272744
#	287948
#	302420
#	315541
#
# Disc length: 4443 seconds
#
# Revision: 1
# Processed by: cddbd v1.5PL3 Copyright (c) Steve Scherf et al.
# Submitted via: audiograbber 1.83.01
#
DISCID=38115915
DTITLE=сборник - Русская 20.
DYEAR=1900
DGENRE=поп
TTITLE0=Руки вверх. - Он не я.
TTITLE1=Маша Распутина. - Заблудилась я.
TTITLE2=Тату. - Я сошла с ума. (Rmx)
TTITLE3=Турбомода. - Турболюбовь.
TTITLE4=Пульс. - Девочка на роликах.
TTITLE5=Демо. - Немая вечность.
TTITLE6=Гости из будущего. - Так отважно.
TTITLE7=Сливки. - Иногда.
TTITLE8=J-Power. - За облаками.
TTITLE9=Валерия. - Моя Москва. (Happy Mix)
TTITLE10=Варвара. - Бабочка. (Full Dance Mix)
TTITLE11=Васюта. - Улетела ты.
TTITLE12=Хали-гали. - Лепестки сирени.
TTITLE13=Кристина Орбакайте. - Аист.
TTITLE14=Наталья Ветлицкая. - Мальчики.
TTITLE15=Шиншыллы. - Я люблю тебя.
TTITLE16=Виа Гра. - Попытка №5.
TTITLE17=Иванушки International. - Я буду ждать.
TTITLE18=Стрелки. - Солнце за горой. (Rmx By Virus)
TTITLE19=Ворон Light. - Оу.
TTITLE20=Акула. - Кислотный ди-джей.
EXTD=
EXTT0=
EXTT1=
EXTT2=
EXTT3=
EXTT4=
EXTT5=
EXTT6=
EXTT7=
EXTT8=
EXTT9=
EXTT10=
EXTT11=
EXTT12=
EXTT13=
EXTT14=
EXTT15=
EXTT16=
EXTT17=
EXTT18=
EXTT19=
EXTT20=
PLAYORDER=
